Coordinates
version=1
nRows=11
nColumns=36
inDegrees=yes

Units are S.I. units (second, meters, Newtons, ...)
If the header above contains a line with 'inDegrees', this indicates whether rotational values are in degrees (yes) or radians (no).

endheader
time	pelvis_tilt	pelvis_list	pelvis_rotation	pelvis_tx	pelvis_ty	pelvis_tz	hip_flexion_r	hip_adduction_r	hip_rotation_r	knee_angle_r	knee_angle_r_beta	ankle_angle_r	subtalar_angle_r	mtp_angle_r	hip_flexion_l	hip_adduction_l	hip_rotation_l	knee_angle_l	knee_angle_l_beta	ankle_angle_l	subtalar_angle_l	mtp_angle_l	lumbar_extension	lumbar_bending	lumbar_rotation	arm_flex_r	arm_add_r	arm_rot_r	elbow_flex_r	pro_sup_r	arm_flex_l	arm_add_l	arm_rot_l	elbow_flex_l	pro_sup_l
      6.36666670	    -10.39752215	      2.34599552	      2.64312244	     -0.01665349	      0.85329209	      0.05210440	     42.90905362	    -12.95464647	     -4.81007227	     53.83987502	      0.93968309	     26.38360957	      7.42167145	     -7.49999987	     43.11883153	    -10.08290878	     -4.51820083	     53.41959552	      0.93234783	     23.79708715	      5.68151510	     -7.49999987	    -15.83519787	     -2.52541615	      5.52689792	    109.62401177	     11.45866562	     58.35792023	    139.10068639	    105.40844848	    122.20590509	     10.88118894	     70.31679736	    110.50827162	     88.77853828
      6.38333330	    -10.02573018	      2.28095309	      2.74928822	     -0.01350153	      0.86526853	      0.05271526	     40.42974966	    -12.48268140	     -5.01494259	     50.39854745	      0.87962059	     25.46263845	      7.26192557	     -7.49999987	     40.69046536	     -9.77095703	     -4.66367140	     50.09132408	      0.87425853	     22.03704180	      5.53594144	     -7.49999987	    -14.55115725	     -2.33127443	      5.71139893	    108.00413508	     11.42045843	     57.69091816	    139.89012103	    105.66450714	    121.21276038	     12.01721912	     69.59554106	    112.13869440	     89.28738022
      6.40000000	     -9.54193283	      2.17198315	      2.85967589	     -0.00667614	      0.88452935	      0.05302254	     37.17340287	    -11.93949052	     -5.44374148	     45.96402067	      0.80222350	     24.22396644	      7.00741340	     -7.49999987	     37.58286694	     -9.37451326	     -4.71109746	     45.88961633	      0.80092490	     20.13600467	      5.44206532	     -7.49999987	    -13.50864535	     -1.97675918	      5.82796681	    106.22682030	     11.56445585	     57.35152069	    140.33604169	    108.62008515	    119.82014649	     12.63904698	     69.02140840	    112.96991383	     99.01231700
      6.41666670	     -8.85640381	      1.85661169	      3.33820744	     -0.00161003	      0.89419254	      0.05295204	     34.01810331	    -11.31778229	     -5.90858800	     42.23654044	      0.73716670	     23.41007602	      7.02109389	     -7.49999987	     34.74616996	     -9.06541013	     -4.31962052	     42.35145068	      0.73917226	     18.37048951	      5.11132961	     -7.49999987	    -12.74255882	     -1.40003118	      4.93914427	    104.67046791	     12.59102568	     57.71639337	    140.39728011	    108.99485285	    118.75851876	     12.77911385	     69.36467515	    112.40539405	     97.90173048
      6.43333330	     -8.62020508	      1.78898900	      3.52072518	      0.00143936	      0.90011002	      0.05259907	     31.59582214	    -10.80975554	     -6.02821746	     39.03293520	      0.68125324	     22.44323045	      6.72459132	     -7.49999987	     32.65427749	     -8.71383195	     -4.18868466	     39.34256693	      0.68665733	     16.82982458	      4.47710337	     -7.49999987	    -11.80060312	     -1.21652174	      4.59447636	    103.59808756	     12.92797932	     57.06589856	    140.12417020	    109.13533621	    118.25534652	     12.96368767	     67.76460627	    114.44287322	     99.88970054
      6.45000000	     -8.52892758	      1.64698595	      3.85061645	      0.00767364	      0.91292026	      0.05185867	     29.14730484	    -10.30573059	     -6.34209142	     35.36439150	      0.61722507	     21.50797599	      6.76360990	     -7.49999987	     30.80781725	     -8.34209806	     -3.80047091	     36.38222833	      0.63498967	     15.26724045	      4.59373927	     -7.49999987	    -10.63166999	     -1.01617024	      4.56844648	    102.14120916	     13.11485951	     57.29010143	    140.68768959	    109.12818725	    117.56291654	     14.04172649	     67.26789637	    116.33278719	     99.92670230
      6.46666670	     -7.09814139	      1.52779727	      4.04516891	      0.01437264	      0.92764455	      0.05328682	     25.23934907	     -9.62451772	     -6.48964402	     31.78411286	      0.55473742	     20.18977650	      6.32526329	     -7.49999987	     27.18425048	     -8.05548098	     -3.17217614	     32.79751054	      0.57242455	     13.58950100	      4.42437387	     -7.49999987	    -10.18665021	     -0.88377133	      4.70854655	    100.15314041	     13.51398116	     58.09531536	    140.65161857	    109.24755355	    115.92074652	     14.59499852	     67.86142014	    117.87877163	    100.20930349
      6.48333330	     -7.09870931	      1.49686842	      4.44330483	      0.01639442	      0.92713302	      0.05186727	     23.50515369	     -9.29739401	     -6.63226642	     28.94041267	      0.50510549	     19.13515927	      6.14848589	     -7.49999987	     25.48300716	     -7.65310533	     -2.94136089	     29.71939859	      0.51870136	     11.99228535	      4.62469488	     -7.49999987	     -8.91210114	     -0.82879846	      4.48871337	     99.16938316	     13.96311287	     57.88088574	    140.63721827	    109.25724971	    115.48767108	     14.80590073	     67.99737021	    118.46660947	    100.33604415
      6.50000000	     -6.37189010	      1.39208518	      4.36085050	      0.01853421	      0.92704950	      0.05267582	     21.40115810	     -8.69341549	     -6.30545073	     26.73596744	      0.46663066	     18.51140245	      5.22890519	     -7.49999987	     23.36749643	     -7.50544230	     -2.30561122	     27.40401087	      0.47829022	     11.47037425	      3.66313977	     -7.49999987	     -8.55658987	     -0.65633909	      3.98855466	     98.83038889	     14.73554876	     56.77191341	    140.32638164	    109.51394527	    115.69936769	     14.49865391	     66.41108599	    118.88901510	    102.94472717
      6.51666670	     -6.23994665	      1.41806078	      4.32796025	      0.02790535	      0.93738947	      0.05214755	     19.52096084	     -8.34600200	     -6.22737389	     24.21268960	      0.42259115	     17.68596653	      4.94684645	     -7.49999987	     21.28335185	     -7.27172557	     -1.99769997	     24.49444264	      0.42750867	     10.90070891	      3.67506607	     -7.49999987	     -7.45888387	     -0.67060427	      4.28761873	     97.53847950	     14.40784030	     56.73935487	    140.34566238	    109.55289998	    115.03275650	     15.27942304	     64.95377140	    120.44472943	    102.93419795
      6.53333330	     -5.89106471	      1.36265929	      4.04256608	      0.03395622	      0.94292633	      0.05198881	     17.40989782	     -7.87321895	     -5.94725211	     21.42423939	      0.37392352	     16.63764322	      4.78308909	     -7.49999987	     18.69475154	     -7.17428419	     -1.78028681	     21.31234478	      0.37197059	     10.12986424	      3.70530190	     -7.49999987	     -6.72931938	     -0.57447417	      4.26745175	     96.38215562	     15.03673241	     57.08574411	    140.17597152	    110.41996675	    113.80518969	     16.43327144	     63.54761589	    122.83778034	    102.67828664
